<?xml version="1.0" encoding="UTF-8" standalone="no"?>
<svg
   xmlns:dc="http://purl.org/dc/elements/1.1/"
   xmlns:cc="http://creativecommons.org/ns#"
   xmlns:rdf="http://www.w3.org/1999/02/22-rdf-syntax-ns#"
   xmlns:svg="http://www.w3.org/2000/svg"
   xmlns="http://www.w3.org/2000/svg"
   xmlns:sodipodi="http://sodipodi.sourceforge.net/DTD/sodipodi-0.dtd"
   xmlns:inkscape="http://www.inkscape.org/namespaces/inkscape"
   inkscape:version="1.0rc1 (09960d6, 2020-04-09)"
   height="100"
   width="100"
   sodipodi:docname="noun_World tour_2962185.svg"
   id="svg36"
   version="1.1"
   y="0px"
   x="0px"
   viewBox="0 0 99.999998 100"
   style="clip-rule:evenodd;fill-rule:evenodd;image-rendering:optimizeQuality;shape-rendering:geometricPrecision;text-rendering:geometricPrecision"
   xml:space="preserve"><metadata
   id="metadata40"><rdf:RDF><cc:Work
       rdf:about=""><dc:format>image/svg+xml</dc:format><dc:type
         rdf:resource="http://purl.org/dc/dcmitype/StillImage" /><dc:title /></cc:Work></rdf:RDF></metadata><sodipodi:namedview
   inkscape:document-rotation="0"
   inkscape:current-layer="svg36"
   inkscape:window-maximized="1"
   inkscape:window-y="0"
   inkscape:window-x="0"
   inkscape:cy="41.553415"
   inkscape:cx="53.221346"
   inkscape:zoom="6.9137253"
   showgrid="false"
   id="namedview38"
   inkscape:window-height="1048"
   inkscape:window-width="1920"
   inkscape:pageshadow="2"
   inkscape:pageopacity="0"
   guidetolerance="10"
   gridtolerance="10"
   objecttolerance="10"
   borderopacity="1"
   bordercolor="#666666"
   pagecolor="#ffffff" /><defs
   id="defs4"><style
     id="style2"
     type="text/css">
   
    .fil1 {fill:none}
    .fil0 {fill:black;fill-rule:nonzero}
   
  </style></defs><g
   transform="matrix(18.744058,0,0,18.744058,-13.736964,-13.773765)"
   id="g28"><g
     id="g26"><g
       id="g24"><g
         id="g20"><g
           id="g16"><path
             style="fill:#ffffff;fill-rule:nonzero"
             inkscape:connector-curvature="0"
             id="path6"
             d="m 3.41315,1.33154 0.026158,3.307e-4 c 0.00924,1.181e-4 0.017921,2.835e-4 0.026079,4.803e-4 l -9.764e-4,0.041504 0.00102,-0.041654 c 0.013362,3.268e-4 0.025098,0.00691 0.03248,0.016878 0.044685,0.051535 0.093563,0.101299 0.140921,0.149508 0.01698,0.017291 0.033795,0.034406 0.049453,0.050598 0.00458,0.00474 0.012134,0.012047 0.020591,0.020228 l 9.06e-5,8.66e-5 7.87e-5,-8.26e-5 c 7.52e-4,7.283e-4 0.00147,0.00148 0.00215,0.00224 0.022205,0.021472 0.049146,0.04774 0.059598,0.063929 l 7.48e-5,-4.73e-5 c 0.00733,0.011386 0.00842,0.025004 0.00413,0.036823 l -0.083543,0.301 6.69e-5,1.97e-5 -1.024e-4,3.819e-4 5.12e-5,1.57e-5 c -1.614e-4,5.866e-4 -3.425e-4,0.00117 -5.275e-4,0.00174 l -0.038717,0.143327 -0.040201,-0.010744 0.040224,0.010866 c -0.006,0.022213 -0.028878,0.035358 -0.051091,0.029358 -0.0054,-0.00146 -0.01026,-0.00392 -0.014441,-0.00711 -0.0083,-0.00546 -0.01485,-0.011673 -0.021697,-0.018169 -0.00728,-0.00691 -0.015795,-0.014984 -0.026067,-0.00589 -0.065217,0.057756 -0.070665,0.069165 -0.060587,0.080547 0.0038,0.00429 0.0096,0.010185 0.016004,0.016705 0.00385,0.00391 0.00793,0.00807 0.011591,0.011878 0.011339,0.011799 0.021551,0.021949 0.03122,0.031563 0.015701,0.015602 0.030114,0.029933 0.044339,0.045894 l 3.54e-5,-3.15e-5 c 0.00949,0.01065 0.012516,0.024823 0.00935,0.037705 -0.00563,0.027972 -0.013653,0.055906 -0.021496,0.083272 -0.0047,0.016382 -0.00936,0.032642 -0.011839,0.042153 -0.00716,0.027468 -0.012429,0.04737 -0.016413,0.062118 -0.00331,0.012244 -0.00924,0.03374 -0.01698,0.061681 l -0.00185,0.00664 c -0.010563,0.037961 -0.055827,0.181972 -0.061413,0.207689 l 0.021248,0.020205 c 0.016224,-0.023579 0.03237,-0.04752 0.04837,-0.071583 0.025193,-0.037894 0.050272,-0.076468 0.074787,-0.114646 0.039307,-0.061205 0.075835,-0.117106 0.112563,-0.173319 0.062413,-0.095516 0.125465,-0.192016 0.182094,-0.282791 l 0.00709,-0.011417 -5.9e-5,-3.54e-5 c 6.26e-4,-0.00101 0.00129,-0.00198 0.00199,-0.00292 0.023583,-0.038024 0.04974,-0.079646 0.078807,-0.104937 0.00694,-0.00604 0.019736,-0.020268 0.033272,-0.035323 0.023138,-0.025728 0.048138,-0.053531 0.06576,-0.063386 l -6.7e-5,-1.221e-4 c 0.01665,-0.00929 0.036929,-0.00593 0.049768,0.00692 l 0.263106,0.225925 0.016095,0.013748 c 0.015398,0.013165 0.029894,0.025563 0.049843,0.042035 l 3.15e-5,-3.93e-5 c 7.166e-4,5.905e-4 0.0014,0.0012 0.00207,0.00183 l 0.199551,0.167516 -0.026693,0.031902 0.026791,-0.031913 c 0.013524,0.011354 0.01802,0.029476 0.012693,0.045256 l -0.131567,0.435331 0.036909,0.035886 c 0.021197,-0.035524 0.051382,-0.084906 0.082764,-0.135677 0.066732,-0.107972 0.141232,-0.225043 0.147953,-0.230961 l -7.48e-5,-8.66e-5 c 0.014846,-0.012732 0.036079,-0.013185 0.051315,-0.00231 l 0.119252,0.071106 7.756e-4,4.409e-4 5.51e-5,-9.45e-5 c 6.417e-4,3.819e-4 0.00127,7.835e-4 0.00188,0.00119 0.00606,0.00342 0.014646,0.00816 0.024602,0.0135 C 4.9932277,2.6183512 4.9703459,2.5802528 4.9532947,2.5518594 4.9371293,2.5249381 4.92559,2.5057177 4.9226293,2.496261 l -1.181e-4,3.55e-5 c -0.00568,-0.018335 0.00194,-0.03761 0.017378,-0.047453 0.021524,-0.016342 0.046213,-0.030764 0.069465,-0.044347 0.012693,-0.00741 0.025004,-0.01461 0.031461,-0.018661 l 0.022134,0.035157 -0.02215,-0.035291 c 0.00111,-7.008e-4 0.00225,-0.00133 0.0034,-0.00192 l 0.095417,-0.058965 -8.26e-5,-1.339e-4 c 0.019575,-0.012094 0.045256,-0.00604 0.05735,0.013539 4.33e-4,7.008e-4 8.464e-4,0.00142 0.00123,0.00213 0.095874,0.158909 0.171157,0.331909 0.222138,0.515287 0.049531,0.178177 0.076008,0.365673 0.076008,0.559004 0,0.575228 -0.233165,1.09601 -0.61013,1.47298 -0.376969,0.376965 -0.897752,0.61013 -1.47298,0.61013 -0.575228,0 -1.09601,-0.233165 -1.47298,-0.610134 -0.376969,-0.376965 -0.610134,-0.897748 -0.610134,-1.47298 0,-0.575228 0.233165,-1.09601 0.610134,-1.47298 0.376969,-0.376969 0.897752,-0.610134 1.47298,-0.610134 z M 3.438331,1.414879 H 3.41315 c -0.552224,0 -1.05218,0.223835 -1.41406,0.585717 -0.361882,0.361878 -0.585717,0.861831 -0.585717,1.41406 0,0.552224 0.223835,1.05218 0.585717,1.41406 0.361882,0.361882 0.861835,0.585717 1.41406,0.585717 0.552228,0 1.05218,-0.223835 1.41406,-0.585713 C 5.189088,4.466838 5.412923,3.966889 5.412923,3.41466 5.412923,3.228373 5.387581,3.048325 5.340175,2.87779 5.2950136,2.7153486 5.229722,2.5610576 5.14714,2.4177736 l -0.059303,0.036646 c -8.78e-4,6.535e-4 -0.00179,0.00128 -0.00274,0.00187 l -6.3e-5,-1.023e-4 c -0.01337,0.00839 -0.02337,0.014232 -0.033689,0.02026 -0.011437,0.00668 -0.02324,0.013579 -0.034213,0.020382 l 0.00745,0.01239 c 0.033854,0.056366 0.089563,0.149138 0.11213,0.213913 0.00337,0.00747 0.00458,0.016016 0.00298,0.024689 -0.00419,0.022626 -0.025929,0.037575 -0.048555,0.03339 l 2.36e-5,-1.3e-4 c -0.014602,-0.00272 -0.036516,-0.011665 -0.059378,-0.022512 -0.031272,-0.014835 -0.066661,-0.034059 -0.083508,-0.043579 -0.0012,-5.669e-4 -0.00238,-0.0012 -0.00355,-0.00189 l 0.021339,-0.035787 -0.021323,0.035646 -0.089673,-0.053472 c -0.023488,0.03763 -0.070839,0.113996 -0.116303,0.187563 -0.05148,0.083291 -0.099008,0.161157 -0.104902,0.173083 -0.00194,0.00544 -0.00506,0.010567 -0.00935,0.01498 -0.016039,0.0165 -0.042421,0.016874 -0.058921,8.346e-4 l 0.029043,-0.029878 -0.028972,0.029787 -0.091031,-0.088496 c -0.012472,-0.010386 -0.018228,-0.027587 -0.013236,-0.044102 l 1.19e-5,4e-6 0.131327,-0.434535 -0.178543,-0.149882 c -5.552e-4,-4.134e-4 -0.00111,-8.465e-4 -0.00165,-0.0013 l 4.33e-5,-5.51e-5 -2.75e-5,-2.37e-5 -1.18e-5,1.58e-5 C 4.3974436,2.3050141 4.3801326,2.290211 4.3617034,2.2744551 l -0.016094,-0.013748 -0.237819,-0.204209 c -0.00757,0.00817 -0.01637,0.017945 -0.024858,0.027386 -0.015512,0.017252 -0.030181,0.033559 -0.040437,0.042488 -0.020453,0.017795 -0.042728,0.053279 -0.062929,0.085854 -5.394e-4,0.00106 -0.00112,0.00211 -0.00176,0.00314 l -0.035394,-0.021984 0.035319,0.021972 -0.00711,0.011441 c -0.058496,0.093768 -0.121102,0.189583 -0.183071,0.284421 -0.039583,0.060579 -0.078913,0.120772 -0.11224,0.172665 -0.024579,0.038268 -0.049835,0.077118 -0.075433,0.115622 -0.02524,0.037961 -0.05061,0.075279 -0.075685,0.110933 -0.0015,0.00246 -0.00329,0.0048 -0.00535,0.00697 -0.015854,0.016677 -0.042232,0.017339 -0.058909,0.00148 l 0.028713,-0.030197 -0.028646,0.03011 -0.063953,-0.060807 c -0.00485,-0.00397 -0.00887,-0.0091 -0.011602,-0.015209 l 0.038035,-0.017008 -0.037925,0.016929 c -0.010315,-0.023071 0.044716,-0.22087 0.057705,-0.267547 l 0.00185,-0.00664 c 0.00378,-0.013653 0.00898,-0.032661 0.016657,-0.061035 0.007,-0.025878 0.012583,-0.04676 0.016413,-0.061465 0.00483,-0.018571 0.00848,-0.031248 0.012161,-0.044106 0.00558,-0.019453 0.01124,-0.039213 0.015811,-0.058228 -0.0088,-0.00924 -0.017429,-0.017831 -0.026555,-0.026902 -0.010138,-0.010075 -0.020843,-0.02072 -0.03252,-0.03287 -0.00417,-0.00434 -0.00764,-0.00787 -0.010937,-0.011224 -0.00667,-0.00678 -0.012685,-0.012902 -0.018933,-0.019957 -0.051646,-0.058323 -0.052319,-0.091406 0.067744,-0.197736 0.045953,-0.040693 0.078386,-0.036653 0.104764,-0.020106 l 0.021898,-0.081059 c 1.693e-4,-7.756e-4 3.543e-4,-0.00155 5.709e-4,-0.00232 l 1.22e-4,3.54e-5 0.078744,-0.28372 c -0.00981,-0.010433 -0.024063,-0.024272 -0.036626,-0.036425 -7.913e-4,-6.574e-4 -0.00157,-0.00135 -0.00232,-0.00208 l 0.028976,-0.029945 -0.028972,0.029787 c -0.00899,-0.0087 -0.01702,-0.016468 -0.022709,-0.02235 -0.016421,-0.01698 -0.03252,-0.03337 -0.048799,-0.049945 -0.04476,-0.045563 -0.09085,-0.092488 -0.134417,-0.141878 l -0.00684,-9.85e-5 z m 1.03753,0.20802 C 4.595605,1.694084 4.707837,1.777171 4.810952,1.870572 4.914999,1.96482 5.00935,2.06921 5.092361,2.182088 l 7.48e-5,-5.51e-5 c 0.01363,0.018535 0.00965,0.044622 -0.00888,0.058252 -0.00466,0.00343 -0.0098,0.00574 -0.015091,0.00699 l -0.010972,0.00355 c -0.088457,0.028638 -0.179858,0.058232 -0.233988,0.071803 l 1.58e-5,5.9e-5 c -0.017374,0.00435 -0.034937,-0.0029 -0.044508,-0.016854 l -0.167858,-0.197217 -1.654e-4,1.417e-4 c -8.937e-4,-0.00105 -0.00172,-0.00213 -0.0025,-0.00324 -0.024516,-0.03026 -0.051992,-0.062075 -0.079354,-0.093752 -0.031736,-0.036748 -0.063339,-0.073339 -0.089244,-0.105953 -0.00763,-0.00961 -0.024677,-0.028543 -0.04298,-0.048882 -0.031244,-0.034717 -0.065953,-0.07328 -0.074905,-0.090421 l -9.05e-5,4.72e-5 c -0.00921,-0.017748 -0.0044,-0.039067 0.010417,-0.051303 l 0.09115,-0.087874 -7.87e-5,-8.27e-5 c 0.014484,-0.013969 0.036484,-0.01535 0.052456,-0.0044 z M 4.75529,1.9321 C 4.663806,1.849234 4.564357,1.774592 4.458164,1.709387 L 4.414459,1.751521 C 4.426715,1.765655 4.443215,1.783993 4.458762,1.801269 4.477727,1.82234 4.49538,1.841954 4.504994,1.854056 4.531183,1.887024 4.56151,1.922143 4.591962,1.957402 c 0.028177,0.032622 0.056476,0.06539 0.081173,0.095862 4.449e-4,4.803e-4 8.858e-4,9.724e-4 0.00131,0.00148 l -7.09e-5,6.3e-5 7.283e-4,9.015e-4 -7.48e-5,5.91e-5 0.152862,0.179598 c 0.04376,-0.012161 0.102327,-0.030744 0.16252,-0.050161 -0.071138,-0.09115 -0.149843,-0.17585 -0.235126,-0.2531011 z"
             class="fil0" /><path
             style="fill:#ffffff;fill-rule:nonzero"
             inkscape:connector-curvature="0"
             id="path8"
             d="m 3.41315,1.33154 c 0.00882,0 0.018626,3.504e-4 0.029291,0.00101 0.010453,6.496e-4 0.02015,0.00152 0.029114,0.00259 l -0.00488,0.041343 0.00493,-0.041374 c 0.011842,0.00141 0.021929,0.00766 0.028524,0.016535 0.044035,0.050579 0.09211,0.09952 0.138717,0.146961 0.016972,0.017279 0.033772,0.034382 0.049445,0.050587 0.00458,0.00474 0.012134,0.012047 0.020591,0.020228 l 9.06e-5,8.66e-5 7.87e-5,-8.27e-5 c 7.52e-4,7.284e-4 0.00147,0.00148 0.00215,0.00224 0.022205,0.021472 0.049146,0.04774 0.059598,0.063929 l 7.48e-5,-4.72e-5 c 0.00733,0.011386 0.00842,0.025004 0.00413,0.036823 l -0.083543,0.301 6.69e-5,1.96e-5 -1.024e-4,3.819e-4 5.12e-5,1.58e-5 c -1.614e-4,5.866e-4 -3.425e-4,0.00117 -5.275e-4,0.00174 l -0.038717,0.143327 -0.040201,-0.010744 0.040224,0.010866 c -0.006,0.022213 -0.028878,0.035358 -0.051091,0.029358 -0.0054,-0.00146 -0.01026,-0.00392 -0.014441,-0.00711 -0.0083,-0.00546 -0.01485,-0.011673 -0.021697,-0.018169 -0.00728,-0.00691 -0.015795,-0.014984 -0.026067,-0.00589 -0.065217,0.057756 -0.070665,0.069165 -0.060587,0.080547 0.0038,0.00429 0.0096,0.010185 0.016004,0.016705 0.00385,0.00391 0.00793,0.00807 0.011591,0.011878 0.011339,0.011799 0.021551,0.021949 0.031221,0.031563 0.015701,0.015602 0.030114,0.029933 0.044339,0.045894 l 3.54e-5,-3.15e-5 c 0.00949,0.01065 0.012516,0.024823 0.00935,0.037705 -0.00563,0.027972 -0.013654,0.055906 -0.021496,0.083272 -0.0047,0.016382 -0.00936,0.032642 -0.011839,0.042153 -0.00716,0.027469 -0.012429,0.04737 -0.016413,0.062118 -0.00331,0.012244 -0.00924,0.03374 -0.01698,0.061681 l -0.00185,0.00664 c -0.010563,0.037961 -0.055827,0.181972 -0.061413,0.207689 l 0.021248,0.020205 c 0.016224,-0.023579 0.03237,-0.04752 0.04837,-0.071583 0.025193,-0.037894 0.050272,-0.076469 0.074787,-0.114646 0.039307,-0.061205 0.075835,-0.117106 0.112563,-0.173319 0.062413,-0.095516 0.125465,-0.192016 0.182094,-0.282791 l 0.00709,-0.011417 -5.9e-5,-3.55e-5 c 6.26e-4,-0.00101 0.00129,-0.00198 0.00199,-0.00292 0.023583,-0.038024 0.04974,-0.079646 0.078807,-0.104937 0.00693,-0.00604 0.019728,-0.020264 0.03326,-0.035315 0.019287,-0.021449 0.039933,-0.044402 0.055476,-0.056492 l -7.88e-5,-1.023e-4 c 0.018177,-0.01411 0.044354,-0.010815 0.058465,0.00736 0.00287,0.00369 0.00502,0.00772 0.00647,0.011906 0.083917,0.189016 0.151307,0.411512 0.19722,0.656925 0.044429,0.237484 0.068878,0.496299 0.068878,0.766831 0,0.56963 -0.108189,1.08628 -0.283102,1.46109 -0.179346,0.384311 -0.430602,0.622016 -0.711244,0.622016 -0.280642,0 -0.531898,-0.237705 -0.711244,-0.622016 -0.174909,-0.374811 -0.283102,-0.891461 -0.283102,-1.46109 0,-0.569634 0.108193,-1.08628 0.283102,-1.46109 0.179346,-0.384311 0.430602,-0.622016 0.711244,-0.622016 z M 3.437559,1.415556 C 3.430389,1.4151151 3.422287,1.4148788 3.41315,1.4148788 c -0.2455,0 -0.470594,0.219295 -0.636047,0.573835 -0.169878,0.364035 -0.274961,0.868114 -0.274961,1.42594 0,0.557823 0.105083,1.0619 0.274961,1.42594 0.165453,0.354539 0.390547,0.573835 0.636047,0.573835 0.2455,0 0.470594,-0.219295 0.636047,-0.573835 0.169886,-0.364031 0.274961,-0.868114 0.274961,-1.42594 0,-0.266063 -0.02387,-0.519669 -0.067248,-0.751531 C 4.216426,2.4467208 4.15904,2.2491188 4.088304,2.0778988 l -0.00539,0.00599 c -0.015508,0.017248 -0.030165,0.033547 -0.040425,0.04248 -0.020453,0.017795 -0.042728,0.053279 -0.062929,0.085854 -5.394e-4,0.00106 -0.00112,0.00211 -0.00176,0.00314 l -0.035394,-0.021984 0.035319,0.021972 -0.00711,0.011441 c -0.058496,0.093768 -0.121102,0.189583 -0.183071,0.284421 -0.039583,0.060579 -0.078913,0.120772 -0.11224,0.172665 -0.024579,0.038268 -0.049835,0.077118 -0.075433,0.115622 -0.02524,0.037961 -0.05061,0.07528 -0.075685,0.110933 -0.0015,0.00246 -0.00329,0.0048 -0.00535,0.00697 -0.015854,0.016677 -0.042232,0.017339 -0.058909,0.00148 L 3.48864,2.8886858 3.459994,2.9187958 3.396041,2.8579888 c -0.00485,-0.00397 -0.00887,-0.0091 -0.011602,-0.015209 l 0.038035,-0.017008 -0.037925,0.016929 c -0.010315,-0.023071 0.044717,-0.22087 0.057705,-0.267547 l 0.00185,-0.00664 c 0.00378,-0.013654 0.00898,-0.032661 0.016657,-0.061035 0.007,-0.025878 0.012583,-0.04676 0.016413,-0.061465 0.00483,-0.018571 0.00848,-0.031248 0.012161,-0.044106 0.00558,-0.019453 0.01124,-0.039213 0.015811,-0.058228 -0.0088,-0.00924 -0.017429,-0.017831 -0.026555,-0.026902 -0.010138,-0.010075 -0.020843,-0.02072 -0.03252,-0.03287 -0.00417,-0.00434 -0.00764,-0.00787 -0.010937,-0.011224 C 3.428464,2.2659038 3.422449,2.2597818 3.416201,2.2527268 3.364555,2.1944038 3.363882,2.1613208 3.483945,2.0549908 3.529898,2.0142978 3.562331,2.0183368 3.588709,2.0348848 l 0.021898,-0.081059 c 1.693e-4,-7.756e-4 3.544e-4,-0.00155 5.709e-4,-0.00232 l 1.22e-4,3.55e-5 0.078744,-0.28372 c -0.00981,-0.010433 -0.024063,-0.024272 -0.036626,-0.036425 -7.913e-4,-6.575e-4 -0.00157,-0.00135 -0.00232,-0.00208 l 0.028976,-0.029945 -0.028972,0.029787 c -0.00899,-0.0087 -0.01702,-0.016468 -0.022709,-0.02235 -0.016402,-0.016961 -0.032512,-0.033362 -0.048791,-0.049933 -0.044374,-0.045173 -0.090063,-0.091677 -0.13335,-0.140661 -0.00299,-2.598e-4 -0.00589,-4.764e-4 -0.00868,-6.496e-4 z"
             class="fil0" /><path
             style="fill:#ffffff;fill-rule:nonzero"
             inkscape:connector-curvature="0"
             id="path10"
             d="m 1.37241,3.37298 c -0.023012,0 -0.041669,0.018657 -0.041669,0.041669 0,0.023012 0.018657,0.041669 0.041669,0.041669 H 5.4546 c 0.023012,0 0.041669,-0.018657 0.041669,-0.041669 0,-0.023012 -0.018657,-0.041669 -0.041669,-0.041669 z"
             class="fil0" /><path
             style="fill:#ffffff;fill-rule:nonzero"
             inkscape:connector-curvature="0"
             id="path12"
             d="M 1.7939,2.15039 C 1.772148,2.14302 1.748534,2.15468 1.741164,2.176433 1.733794,2.198185 1.745454,2.221799 1.767207,2.229169 2.350463,2.426575 2.933937,2.514968 3.517597,2.500823 3.540518,2.5002876 3.55866,2.481264 3.558125,2.458343 3.5575896,2.435422 3.538566,2.41728 3.515645,2.417815 2.941932,2.43172 2.368015,2.344701 1.793905,2.15039 Z M 3.77744,2.404362 C 3.754519,2.406062 3.737322,2.426035 3.739027,2.448957 3.740727,2.471878 3.7607,2.489075 3.783622,2.48737 3.904905,2.47798 4.026146,2.464209 4.147323,2.446126 4.269051,2.427953 4.390288,2.405547 4.511016,2.378973 4.533485,2.374033 4.547693,2.3518 4.542752,2.329331 4.537812,2.306862 4.515579,2.292654 4.49311,2.297595 4.373338,2.323961 4.254047,2.346044 4.135275,2.363772 4.015944,2.381579 3.896657,2.395138 3.77744,2.404362 Z M 4.78725,2.224519 C 4.76514,2.230629 4.752167,2.253515 4.758278,2.275625 4.764388,2.297735 4.787274,2.310708 4.809384,2.304597 4.853089,2.292467 4.89473,2.280436 4.934266,2.268522 4.975357,2.256144 5.017046,2.243073 5.059309,2.229329 5.081151,2.222229 5.0931,2.198762 5.086002,2.17692 5.078902,2.155078 5.055435,2.143129 5.033593,2.150227 4.993144,2.163381 4.952109,2.176231 4.910502,2.188766 4.867336,2.201775 4.8262534,2.2136923 4.78725,2.224519 Z"
             class="fil0" /><path
             style="fill:#ffffff;fill-rule:nonzero"
             inkscape:connector-curvature="0"
             id="path14"
             d="M 1.7672,4.59893 C 1.745448,4.6063 1.733787,4.629914 1.741157,4.651666 c 0.00737,0.021752 0.030984,0.033413 0.052736,0.026043 0.540059,-0.182787 1.07993,-0.27063 1.6196,-0.268854 0.53965,0.00178 1.0797,0.093232 1.62009,0.269016 0.021842,0.0071 0.045311,-0.00485 0.052409,-0.026693 C 5.093092,4.629336 5.081142,4.605867 5.059299,4.598769 4.511071,4.420438 3.962469,4.327655 3.413489,4.325848 2.864532,4.324048 2.315749,4.413265 1.767189,4.598931 Z"
             class="fil0" /></g><path
           style="fill:#ffffff;fill-rule:nonzero"
           inkscape:connector-curvature="0"
           id="path18"
           d="M 4.00274,1.30398 4.400736,1.219149 C 4.384216,1.190558 4.383827,1.156893 4.429445,1.110755 4.557575,0.981196 4.559831,0.983483 4.658626,1.083822 c 0.00664,0.00675 0.013933,0.014154 0.022087,0.022252 0.012634,0.012555 0.021185,0.021748 0.027783,0.028843 0.00614,0.0066 9.291e-4,0.00723 0.00509,0.00859 0.00652,0.00213 -0.00394,-0.00295 0.00128,-0.0046 0.00716,-0.00226 0.016272,-0.00515 0.031331,-0.00915 C 4.793268,1.117265 4.837532,1.105214 4.880343,1.093375 4.9168,1.083296 4.964064,1.070021 5.013894,1.056001 5.041355,1.048281 5.070906,1.040442 5.100359,1.032643 5.11245,1.029443 5.123796,1.026433 5.149178,1.019576 5.203513,1.004899 5.208426,1.010756 5.232406,1.039411 c 0.00234,0.0028 0.0052,0.00621 0.00824,0.00926 0.00402,0.00402 0.00675,0.00656 0.00962,0.0092 l 7.87e-5,-8.66e-5 7.09e-5,6.69e-5 5.9e-5,-6.3e-5 c 6.496e-4,6.024e-4 0.00127,0.00122 0.00187,0.00185 0.013555,0.012547 0.028791,0.027055 0.037839,0.044118 l 8.66e-5,-4.73e-5 c 0.01074,0.020311 0.00301,0.045472 -0.017256,0.05626 l -0.683465,0.449768 c -0.016732,0.011016 -0.021303,0.013953 -0.02602,0.016988 -0.02998,0.019287 -0.056465,0.036323 -0.079445,0.057677 l -7.9e-6,-7.8e-6 -1.97e-5,1.57e-5 7.09e-5,7.88e-5 c -5.669e-4,5.275e-4 -0.00115,0.00104 -0.00173,0.00152 l -0.067937,0.0655 c 0.012256,0.014134 0.02876,0.032472 0.044307,0.049748 0.018965,0.021071 0.036614,0.040677 0.046232,0.052784 0.026197,0.03298 0.056528,0.068098 0.086984,0.103366 0.028902,0.033465 0.057937,0.067087 0.083075,0.09822 l 8.27e-5,-6.69e-5 c 6.693e-4,8.307e-4 0.0013,0.00168 0.0019,0.00254 l 0.150858,0.177252 c 0.053669,-0.014917 0.12961,-0.0395 0.203512,-0.063425 0.092205,-0.029846 0.18135,-0.058705 0.22339,-0.067689 0.035342,-0.00755 0.045315,0.00398 0.061209,0.022374 0.00115,0.00133 0.00243,0.0028 0.00365,0.00405 0.00524,0.00533 0.012996,0.012811 0.021342,0.020854 0.021622,0.020839 0.046941,0.045232 0.056902,0.060528 l 1.103e-4,-7.08e-5 c 0.012189,0.018736 0.00738,0.04363 -0.010587,0.056539 -0.018673,0.015268 -0.048441,0.032504 -0.073787,0.047161 -0.011024,0.00637 -0.021224,0.012276 -0.026591,0.015606 l -0.20198,0.124827 1.57e-5,2.75e-5 -2.913e-4,1.811e-4 6.3e-5,1.063e-4 c -8.583e-4,5.276e-4 -0.00172,0.00102 -0.0026,0.00148 -0.011984,0.00747 -0.021319,0.012921 -0.030913,0.018528 -0.011433,0.00668 -0.02324,0.013571 -0.034205,0.020374 l 0.00746,0.012398 c 0.034559,0.057539 0.091894,0.153012 0.1135,0.217921 l 1.733e-4,-5.91e-5 c 0.00726,0.021835 -0.00456,0.045429 -0.02639,0.052689 -0.00861,0.00286 -0.017484,0.00276 -0.025528,2.481e-4 -0.014382,-0.00356 -0.034083,-0.011748 -0.054551,-0.021453 -0.033067,-0.015685 -0.070752,-0.036287 -0.086236,-0.045122 l 0.020508,-0.036134 -0.02065,0.036193 c -0.00121,-6.929e-4 -0.00238,-0.00144 -0.0035,-0.00223 l -0.086847,-0.051791 c -0.023488,0.037622 -0.070819,0.113972 -0.116276,0.18752 -0.053429,0.086445 -0.102614,0.167075 -0.105421,0.174209 l -0.038736,-0.015138 0.038772,0.01526 c -0.00843,0.021409 -0.032622,0.031937 -0.054031,0.023512 -0.00635,-0.0025 -0.011752,-0.00639 -0.01598,-0.011189 l -0.091083,-0.088555 -7.87e-5,8.27e-5 c -0.011862,-0.011535 -0.015386,-0.028421 -0.010465,-0.04313 l 0.130957,-0.433335 -0.180343,-0.151398 5.51e-5,-6.3e-5 -5.51e-5,-4.33e-5 -9.85e-5,1.181e-4 C 4.4114407,2.3165968 4.410625,2.3158534 4.409845,2.3150834 4.391184,2.2996384 4.376747,2.2872924 4.361392,2.2741624 L 4.345609,2.2606784 4.107794,2.0564654 c -0.00757,0.00816 -0.016366,0.017945 -0.02485,0.027382 -0.015516,0.017256 -0.030185,0.033563 -0.040441,0.042492 -0.021067,0.018331 -0.044071,0.055429 -0.064748,0.088787 l -0.035319,-0.021811 0.035413,0.021953 c -4.292e-4,6.929e-4 -8.78e-4,0.00137 -0.00134,0.00202 l -0.00589,0.00948 c -0.058531,0.093827 -0.121181,0.189713 -0.183193,0.284614 -0.039543,0.06052 -0.078827,0.120638 -0.112122,0.172476 -0.024579,0.038272 -0.049835,0.077118 -0.075433,0.115618 -0.025752,0.038736 -0.051642,0.076803 -0.077217,0.11311 l -0.034016,-0.023925 0.034063,0.023996 c -0.013252,0.018811 -0.039248,0.023319 -0.058059,0.010067 -0.00256,-0.0018 -0.00485,-0.00385 -0.00687,-0.00607 l -0.063929,-0.060791 -7.48e-5,7.87e-5 c -0.014102,-0.013405 -0.016752,-0.034342 -0.00765,-0.050567 0.010358,-0.065701 0.046012,-0.19385 0.056138,-0.23024 l 0.00185,-0.00665 c 0.00387,-0.013969 0.009,-0.03274 0.016654,-0.061039 0.00694,-0.02565 0.012512,-0.046469 0.016413,-0.061461 0.00484,-0.018587 0.00848,-0.03124 0.01215,-0.044051 0.00558,-0.019468 0.01126,-0.039248 0.015831,-0.058283 -0.0088,-0.00924 -0.017429,-0.017823 -0.026551,-0.02689 -0.010142,-0.010079 -0.020847,-0.02072 -0.032528,-0.032878 -0.00413,-0.0043 -0.00763,-0.00786 -0.010937,-0.01122 -0.00666,-0.00678 -0.012697,-0.012921 -0.018929,-0.019953 -0.051657,-0.058323 -0.052331,-0.091409 0.06774,-0.197756 0.045953,-0.040689 0.078386,-0.03665 0.104768,-0.020102 l 0.022409,-0.082968 0.040201,0.010744 -0.040224,-0.010866 c 3.071e-4,-0.00114 6.614e-4,-0.00226 0.00106,-0.00335 L 3.6900471,1.667813 C 3.6796455,1.65675 3.6642597,1.6418681 3.651181,1.6292185 3.642151,1.6204885 3.63409,1.6126945 3.628398,1.6068055 3.611957,1.5897975 3.595803,1.5733565 3.579465,1.5567265 3.460591,1.4357185 3.332496,1.3053245 3.270823,1.1496595 3.238335,1.0676555 3.229469,1.0076945 3.237496,0.96530553 c 0.00842,-0.0444685 0.033146,-0.0714291 0.068933,-0.084748 0.030004,-0.0111654 0.066453,-0.010874 0.105878,-0.002382 0.090843,0.0195669 0.206469,0.0847283 0.285894,0.14689397 0.063201,0.049468 0.121394,0.105787 0.179898,0.162406 0.040933,0.03961 0.082028,0.079386 0.124641,0.1165045 z M 4.478394,1.245126 4.487024,1.285815 4.002402,1.38911 C 3.989567,1.39265 3.975264,1.3899958 3.964343,1.38074 l 5.9e-5,-7.08e-5 C 3.91465,1.3385002 3.867296,1.2926692 3.820158,1.2470512 3.763032,1.1917672 3.706201,1.1367682 3.647095,1.0905042 3.575725,1.0346462 3.47343,0.97643315 3.39506,0.95955515 c -0.024906,-0.005362 -0.045772,-0.006358 -0.059658,-0.001193 -0.00811,0.003016 -0.013886,0.0100433 -0.016193,0.0222441 -0.0052,0.0275 0.00276,0.0719882 0.029091,0.13845695 0.055622,0.14039 0.177402,0.264354 0.290413,0.379398 0.01702,0.017323 0.03387,0.034472 0.049587,0.050732 0.00457,0.00472 0.012087,0.011996 0.0205,0.02013 0.021169,0.020472 0.047524,0.045957 0.059701,0.062902 0.00798,0.010079 0.011201,0.023701 0.0075,0.037035 l -1.221e-4,-3.54e-5 -0.083657,0.301409 c -1.889e-4,9.646e-4 -4.094e-4,0.00193 -6.693e-4,0.00289 l -5.11e-5,-1.57e-5 -0.038697,0.143264 c -8.859e-4,0.00416 -0.00242,0.00825 -0.00466,0.012134 -0.011484,0.019941 -0.036961,0.026795 -0.056902,0.015311 l 9.05e-5,-1.536e-4 C 3.580746,2.1379535 3.573093,2.1307015 3.56503,2.1230475 3.55775,2.1161375 3.549231,2.1080675 3.538963,2.1171575 3.473739,2.1749255 3.468294,2.1863345 3.47838,2.1977245 c 0.00381,0.0043 0.00959,0.010185 0.016,0.016701 0.00384,0.00391 0.00789,0.00802 0.011591,0.011874 0.011346,0.011807 0.021555,0.021961 0.031228,0.031571 0.01515,0.015059 0.029102,0.028925 0.042847,0.044228 0.0094,0.00949 0.014071,0.023327 0.011291,0.037413 l -3.93e-5,-7.9e-6 c -0.00566,0.028638 -0.013866,0.057244 -0.021898,0.085248 -0.0047,0.016394 -0.00936,0.032626 -0.011827,0.042098 -0.00707,0.027177 -0.012366,0.04715 -0.016413,0.062114 -0.00333,0.012323 -0.00932,0.034051 -0.016976,0.061685 l -0.00185,0.00665 c -0.010567,0.037965 -0.055823,0.181972 -0.061409,0.207685 l 0.021244,0.020201 c 0.016216,-0.023579 0.032366,-0.047516 0.048366,-0.071579 0.025197,-0.037894 0.050272,-0.076465 0.074787,-0.114642 0.039272,-0.061146 0.07576,-0.116988 0.112445,-0.17313 0.062453,-0.095579 0.125547,-0.192142 0.182217,-0.282984 l 0.00585,-0.00942 c 3.74e-4,-6.85e-4 7.677e-4,-0.00137 0.00118,-0.00204 l 5.91e-5,3.54e-5 3.54e-5,-5.51e-5 7.09e-5,4.33e-5 c 0.024055,-0.038803 0.050807,-0.081921 0.08063,-0.107874 0.00694,-0.00604 0.019732,-0.020268 0.033276,-0.035327 0.020886,-0.023224 0.043283,-0.048134 0.060405,-0.060008 0.015319,-0.011937 0.037421,-0.011854 0.052724,0.00129 l -7.09e-5,8.27e-5 0.265496,0.22798 0.015784,0.013484 c 0.016886,0.014433 0.032827,0.028067 0.047335,0.040098 0.00106,7.322e-4 0.0021,0.00153 0.00311,0.00237 l -4.73e-5,5.51e-5 0.199492,0.167472 c 0.013752,0.010173 0.020335,0.028244 0.015102,0.045559 l -1.18e-5,-3.9e-6 -0.131949,0.436626 0.036909,0.035886 c 0.021201,-0.035535 0.051398,-0.084933 0.082791,-0.13572 0.053342,-0.086315 0.111642,-0.178421 0.136315,-0.214921 7.992e-4,-0.00197 0.00176,-0.00391 0.00288,-0.0058 0.011783,-0.019764 0.037366,-0.026228 0.05713,-0.014445 l -0.021342,0.035787 0.021323,-0.035646 0.120039,0.071587 c 7.441e-4,3.701e-4 0.00148,7.559e-4 0.00221,0.00117 l -5.91e-5,1.063e-4 c 0.00606,0.00345 0.015732,0.00882 0.027236,0.014992 C 4.993221,2.6183554 4.970347,2.5802564 4.953292,2.5518634 4.941032,2.5314504 4.931426,2.5154544 4.926213,2.5047924 4.915965,2.4870714 4.920083,2.4640524 4.936681,2.4511074 l 9.45e-5,1.221e-4 c 0.022232,-0.017335 0.048185,-0.032492 0.072559,-0.046728 0.011216,-0.00655 0.022122,-0.012929 0.028984,-0.01713 8.74e-4,-6.378e-4 0.00178,-0.00125 0.00271,-0.00183 l 0.021905,0.035445 -0.021811,-0.035319 0.202287,-0.125016 c 0.00962,-0.00596 0.018709,-0.011224 0.028543,-0.016913 0.00904,-0.00523 0.018717,-0.010827 0.027917,-0.016347 -0.00544,-0.00531 -0.011102,-0.010768 -0.0165,-0.015969 -0.00863,-0.00832 -0.016646,-0.016043 -0.022972,-0.022484 l -4.724e-4,-4.843e-4 c -0.042925,0.010721 -0.121807,0.036256 -0.203138,0.062583 -0.086965,0.028153 -0.176673,0.057197 -0.230929,0.070988 -0.01548,0.00485 -0.033047,3.74e-4 -0.04422,-0.012756 l 0.031732,-0.027004 -0.031575,0.026854 -0.167886,-0.197264 c -0.00128,-0.00122 -0.00249,-0.00254 -0.00363,-0.00394 l 0.032421,-0.026173 -0.03239,0.026043 c -0.024968,-0.030929 -0.053134,-0.063543 -0.081173,-0.096008 -0.03174,-0.036752 -0.06335,-0.07335 -0.08926,-0.105972 -0.00763,-0.0096 -0.024677,-0.028539 -0.04298,-0.048878 -0.028457,-0.031618 -0.059787,-0.066421 -0.071913,-0.085335 -0.01185,-0.016531 -0.010095,-0.039689 0.00498,-0.054228 l 0.028921,0.029996 -0.028807,-0.029949 0.094642,-0.091248 c 8.386e-4,-9.371e-4 0.00172,-0.00184 0.00267,-0.00272 l 6.29e-5,6.69e-5 c 0.028476,-0.026457 0.05787,-0.045362 0.091142,-0.066768 l 0.025366,-0.016342 0.646138,-0.425201 c -0.00358,-0.00332 -0.00669,-0.00623 -0.00839,-0.00793 -0.00611,-0.00613 -0.00987,-0.010579 -0.012913,-0.014224 l 2.048e-4,7.756e-4 c 0.00151,0.00237 0.00331,0.0057 0.00165,0.00615 -0.00702,0.00189 -0.028437,0.00757 -0.04915,0.013067 -0.028087,0.00744 -0.056287,0.014913 -0.085158,0.023035 -0.039587,0.011138 -0.081185,0.022803 -0.133882,0.037374 -0.046335,0.012811 -0.091547,0.025138 -0.135122,0.036705 -0.00994,0.00264 -0.019748,0.00574 -0.027425,0.00817 -0.022138,0.007 -0.033098,0.010472 -0.052059,0.00428 -0.016339,-0.00533 -0.024366,-0.013972 -0.040244,-0.031051 -0.00648,-0.00696 -0.014874,-0.015996 -0.025508,-0.026559 -0.00826,-0.00821 -0.015831,-0.015894 -0.022732,-0.022906 -0.040839,-0.041476 -0.041776,-0.042421 -0.110693,0.027264 -0.01261,0.012756 -0.00331,0.023685 0.00691,0.034004 7.796e-4,6.732e-4 0.00154,0.00138 0.00228,0.00211 l -3.9e-6,3.9e-6 c 0.00226,0.00226 0.0045,0.0045 0.0088,0.00905 0.00611,0.00564 0.010606,0.013161 0.012468,0.021913 0.0048,0.022504 -0.00956,0.044642 -0.032067,0.049437 z M 5.168599,1.092795 c -0.0021,-0.00251 -9.724e-4,-0.00115 4.173e-4,0.00103 l -2.047e-4,-7.756e-4 z m 0.053591,-0.00441 -0.013496,0.014591 1.57e-5,-1.18e-5 z"
           class="fil0" /></g><path 
         style="fill:#ffffff;fill-rule:nonzero"
         inkscape:connector-curvature="0"
         id="path22"
         d="M 5.2455,1.65453 C 5.218181,1.626644 5.171425,1.64746 5.173894,1.686317 c 7.874e-4,0.0099 0.00462,0.018756 0.01152,0.025953 l 0.00497,0.00519 0.00496,0.0052 0.00493,0.00521 0.00493,0.00522 0.0049,0.00524 0.00489,0.00525 0.00489,0.00528 0.00486,0.00528 0.00484,0.00529 0.00483,0.00531 0.00481,0.00533 0.00203,0.00226 C 5.266345,1.800149 5.312687,1.78318 5.31386,1.745594 5.3140332,1.7347 5.31049,1.724661 5.303159,1.716535 l -0.00203,-0.00226 -0.00498,-0.0055 -0.005,-0.0055 -0.00501,-0.00548 -0.00503,-0.00546 -0.00503,-0.00543 -0.00506,-0.00544 -0.00508,-0.00542 -0.00508,-0.00541 -0.00511,-0.00539 -0.00511,-0.00537 z M 2.51094,1.12853 C 2.543322,1.11588 2.546475,1.070676 2.51609,1.053546 2.504964,1.047276 2.492055,1.046436 2.480173,1.051086 l -0.0042,0.00165 -0.011248,0.0045 -0.011232,0.00455 -0.011213,0.00461 -0.011177,0.00466 -0.011154,0.00471 -0.011114,0.00476 -0.00693,0.003 c -0.036886,0.016394 -0.031681,0.069988 0.00791,0.078929 0.00881,0.00182 0.017158,9.96e-4 0.025429,-0.00255 l 0.00657,-0.00285 0.01076,-0.00461 0.010776,-0.00456 0.010807,-0.00451 0.010827,-0.00445 0.010862,-0.0044 0.010894,-0.00436 z M 2.215074,1.26903 C 2.23207,1.2594 2.240039,1.239774 2.23468,1.221026 2.22687,1.19514 2.197932,1.183353 2.174271,1.196369 l -0.00294,0.00165 -0.010457,0.0059 -0.010429,0.00596 -0.010386,0.006 -0.010366,0.00604 -0.010339,0.0061 -0.010295,0.00614 -0.008,0.00482 c -0.030138,0.018705 -0.025366,0.063346 0.00806,0.075047 0.012008,0.004 0.024228,0.00269 0.035122,-0.00377 l 0.00767,-0.00462 0.00996,-0.00594 0.00998,-0.00589 0.01002,-0.00585 0.010063,-0.00581 0.010075,-0.00575 0.010118,-0.00571 z M 1.940665,1.447621 C 1.97061,1.424885 1.95746,1.377141 1.919964,1.372975 1.909066,1.371935 1.899153,1.374625 1.89035,1.381185 l -0.0092,0.00693 -0.0095,0.00723 -0.00947,0.00728 -0.00943,0.00732 -0.00939,0.00735 -0.00936,0.00741 -0.00933,0.00745 -0.0012,9.764e-4 c -0.02863,0.023228 -0.015047,0.069713 0.021642,0.073787 0.011307,0.00108 0.021945,-0.00183 0.030823,-0.00904 l 9.055e-4,-7.322e-4 0.00902,-0.0072 0.00906,-0.00716 0.00909,-0.00713 0.00912,-0.00708 0.00916,-0.00703 0.0092,-0.007 z M 1.692169,1.661164 C 1.705779,1.647829 1.708441,1.626719 1.698799,1.610349 1.68485,1.586963 1.653063,1.582821 1.633622,1.601869 l -0.00479,0.00471 -0.00846,0.00839 -0.00843,0.00844 -0.00839,0.00847 -0.00834,0.00851 -0.00831,0.00855 -0.00827,0.00859 -0.00445,0.00467 C 1.557773,1.679656 1.559166,1.70688 1.577312,1.722541 1.594351,1.736958 1.61917,1.735675 1.634627,1.719561 l 0.00419,-0.00439 0.00799,-0.0083 0.00804,-0.00827 0.00807,-0.00824 0.00811,-0.0082 0.00815,-0.00815 0.0082,-0.00813 z M 1.474082,1.905703 C 1.496661,1.876672 1.4730938,1.834648 1.436531,1.838711 1.425181,1.840151 1.415373,1.845451 1.40831,1.85453 L 1.40716,1.85599 1.39985,1.86543 1.39259,1.87491 1.38537,1.88442 1.37819,1.89397 1.37106,1.90355 1.36397,1.91316 1.35737,1.92219 C 1.34989,1.932469 1.34752,1.945599 1.35093,1.95784 1.36028,1.991387 1.404328,1.999316 1.424788,1.971183 l 0.00637,-0.00872 0.00685,-0.0093 0.00691,-0.00927 0.00694,-0.00923 0.00699,-0.0092 0.00703,-0.00917 0.00707,-0.00913 z M 1.290444,2.17677 C 1.309881,2.143042 1.276554,2.10338 1.239838,2.116845 1.230638,2.120435 1.223291,2.126405 1.218326,2.135014 l -0.00494,0.0085 -0.00599,0.010394 -0.00594,0.010437 -0.00589,0.010468 -0.00584,0.010488 -0.0058,0.01052 -0.00575,0.010555 -0.00134,0.00249 c -0.00754,0.014146 -0.00638,0.031307 0.00308,0.044252 0.018075,0.024732 0.055976,0.022106 0.070386,-0.00491 l 0.00115,-0.00213 0.00556,-0.010201 0.00561,-0.010181 0.00565,-0.010158 0.0057,-0.010114 0.00575,-0.010083 0.00579,-0.010063 z M 1.144472,2.469979 C 1.151052,2.45403 1.147162,2.436089 1.134872,2.424066 1.113659,2.403755 1.078651,2.411011 1.067439,2.438184 l -0.00322,0.00775 -0.00459,0.011209 -0.00454,0.011236 -0.00449,0.01126 -0.00444,0.011287 -0.00439,0.011319 -0.00433,0.011339 -0.00126,0.00335 c -0.0057,0.015193 -0.00205,0.031957 0.00913,0.04363 0.021405,0.021882 0.058189,0.014193 0.068925,-0.014441 l 0.00112,-0.00297 0.00419,-0.010968 0.00424,-0.010941 0.00429,-0.010917 0.00434,-0.01089 0.00439,-0.010866 0.00444,-0.010839 z M 1.039055,2.779995 C 1.042445,2.766849 1.0394093,2.753105 1.030685,2.74268 1.008602,2.716826 0.9673819,2.726109 0.9584409,2.758893 l -0.002776,0.010512 -0.003087,0.011898 -0.003028,0.011925 -0.002972,0.011941 -0.002917,0.011965 -0.002862,0.011988 -0.00276,0.011827 c -0.008756,0.039118 0.0366535,0.067 0.0679173,0.040839 0.0068,-0.00594 0.011189,-0.013319 0.013287,-0.022106 l 0.00267,-0.011417 0.00277,-0.011594 0.00282,-0.011571 0.00288,-0.011555 0.00293,-0.011532 0.00298,-0.011504 z M 0.9760944,3.101464 C 0.9784094,3.081799 0.9670664,3.063468 0.9483542,3.056932 0.9230904,3.048372 0.8968896,3.064782 0.8933936,3.091188 l -8.8189e-4,0.00697 -0.001516,0.012453 -0.001457,0.012472 -0.001398,0.012492 -0.001331,0.012512 -0.00128,0.01252 -0.001213,0.012543 -2.0866e-4,0.00229 c -0.001528,0.017327 0.007705,0.033543 0.0232874,0.041201 0.0262165,0.012657 0.0571496,-0.00474 0.0597126,-0.033776 l 1.7716e-4,-0.00189 0.001173,-0.012134 0.001232,-0.012118 0.001291,-0.012102 0.00135,-0.012075 0.001409,-0.012063 0.001469,-0.012051 z M 0.9563661,3.428555 C 0.95588185,3.3956692 0.920122,3.3761613 0.8922322,3.3937243 0.880059,3.4017637 0.8730353,3.414429 0.8730353,3.4290826 l 3.94e-6,0.002 1.5354e-4,0.016402 2.5984e-4,0.016374 3.6221e-4,0.01635 4.685e-4,0.016327 5.6299e-4,0.016295 5.119e-5,0.00115 c 0.001669,0.03787 0.0492283,0.053992 0.0736811,0.024768 0.00665,-0.00815 0.0100354,-0.017933 0.009571,-0.028468 l -2.756e-5,-6.102e-4 -5.4725e-4,-0.015776 -4.5275e-4,-0.015799 -3.4646e-4,-0.015823 -2.5197e-4,-0.015846 -1.5354e-4,-0.015874 z m 0.023378,0.326732 C 0.9739051,3.715574 0.9213543,3.705968 0.9018386,3.741224 0.8975316,3.749264 0.8960196,3.757795 0.8972166,3.766838 l 4.1732e-4,0.00306 0.00226,0.015811 0.002362,0.015791 0.002457,0.015748 0.002555,0.015724 0.00265,0.015685 3.6221e-4,0.00207 c 0.006862,0.038319 0.0582047,0.047047 0.0773307,0.013114 0.004744,-0.00857 0.006441,-0.018095 0.004709,-0.027768 L 0.99204424,3.834523 0.98948124,3.81935 0.98701324,3.804145 0.98463524,3.788909 0.98235224,3.773645 0.98016324,3.758346 Z m 0.0665472,0.32052 C 1.0355433,4.038464 0.9840472,4.034768 0.9681378,4.070257 0.9641258,4.079567 0.9634568,4.088788 0.9661258,4.09858 l 0.00324,0.011551 0.004327,0.015051 0.004417,0.015012 0.004504,0.014976 0.004594,0.014937 0.003016,0.00959 c 0.0125236,0.038768 0.0674213,0.03852 0.0795472,-4.055e-4 0.00243,-0.00822 0.00252,-0.016638 -1.299e-4,-0.024839 l -0.00286,-0.00909 -0.00444,-0.014441 -0.00435,-0.01448 -0.00427,-0.014524 -0.00418,-0.014555 z m 0.108878,0.308811 C 1.1401573,4.350839 1.0925233,4.3515 1.0782873,4.385898 c -0.00411,0.010717 -0.004,0.021547 5.354e-4,0.032118 l 0.00605,0.013937 0.00624,0.014142 0.00632,0.014087 0.0064,0.014043 0.00649,0.014008 0.00326,0.00692 c 0.017874,0.036945 0.072291,0.02902 0.078847,-0.011618 0.00119,-0.00849 8.66e-5,-0.016315 -0.00356,-0.024098 l -0.00304,-0.00646 -0.00627,-0.013535 -0.00619,-0.013587 -0.00611,-0.01363 -0.00603,-0.013669 z m 0.149256,0.291543 c -0.019563,-0.031516 -0.066772,-0.02437 -0.076031,0.011516 -0.00269,0.011134 -0.00104,0.021905 0.00481,0.03176 l 0.0076,0.012598 0.008,0.013067 0.00807,0.013016 0.00815,0.012965 0.00822,0.012917 0.00468,0.00724 c 0.00933,0.014374 0.026236,0.021382 0.043008,0.018185 0.028894,-0.00587 0.042953,-0.038811 0.026866,-0.063594 l -0.0044,-0.00682 -0.00795,-0.012484 -0.00788,-0.012539 -0.00781,-0.012591 -0.00773,-0.012642 z m 0.18676,0.269142 c -0.025169,-0.031024 -0.075339,-0.012405 -0.074087,0.027669 2.795e-4,0.00889 0.00359,0.017701 0.00919,0.024606 l 0.00757,0.00946 0.0096,0.011846 0.00967,0.011795 0.00974,0.011732 0.00981,0.011665 0.00743,0.00874 c 0.02622,0.030299 0.075732,0.010161 0.073216,-0.03011 -7.205e-4,-0.00909 -0.004,-0.017098 -0.0099,-0.024071 l -0.00711,-0.00836 -0.00949,-0.011295 -0.00942,-0.011347 -0.00936,-0.011409 -0.00929,-0.011461 z m 0.220795,0.242067 c -0.0095,-0.00893 -0.021583,-0.012756 -0.034476,-0.011118 -0.034559,0.00494 -0.048177,0.047311 -0.023035,0.071425 l 0.00622,0.00596 0.011059,0.010488 0.011126,0.010417 0.011185,0.010346 0.011248,0.010287 0.011134,0.010059 C 1.7419763,5.328266 1.7830943,5.311864 1.7858233,5.27749 1.78665,5.264289 1.7820033,5.25214 1.7721183,5.243226 L 1.7613543,5.233506 1.7504763,5.223556 1.7396533,5.21354 1.7288973,5.203469 1.7182003,5.193327 Z m 0.250846,0.210732 c -0.030035,-0.021846 -0.071595,0.00366 -0.065677,0.040354 0.00195,0.011169 0.00748,0.020193 0.016575,0.026976 l 0.00429,0.00315 0.012366,0.00896 0.012421,0.00889 0.012476,0.00882 0.012539,0.00875 0.012587,0.00867 0.00257,0.00176 c 0.032358,0.021571 0.073847,-0.00845 0.063358,-0.046091 -0.00277,-0.00937 -0.00854,-0.017524 -0.016705,-0.022965 l -0.00217,-0.00147 -0.012177,-0.00839 -0.012122,-0.00846 -0.012067,-0.00853 -0.01202,-0.0086 -0.011965,-0.00867 z m 0.276539,0.175587 c -0.036606,-0.019524 -0.076114,0.019906 -0.056382,0.05674 0.00392,0.00708 0.00951,0.012587 0.016602,0.016488 l 0.00293,0.0016 0.01352,0.00729 0.013575,0.00722 0.013626,0.00714 0.013665,0.00705 0.013716,0.00698 0.00415,0.00208 C 2.3095583,5.703387 2.3467633,5.668316 2.3314563,5.63219 2.3273463,5.62303 2.3208143,5.616198 2.3118543,5.611647 l -0.00369,-0.00184 -0.013268,-0.00675 -0.013224,-0.00683 -0.013169,-0.00689 -0.013126,-0.00698 -0.013079,-0.00706 z m 0.297406,0.137122 C 2.4986063,5.6965 2.4647123,5.739634 2.4876253,5.773366 c 0.00496,0.00716 0.011433,0.012177 0.019532,0.015343 l 0.00372,0.00143 0.014531,0.00548 0.014575,0.00539 0.014614,0.0053 0.01465,0.00521 0.014701,0.00513 0.00299,0.00102 C 2.6229893,5.82987 2.6552963,5.790933 2.6365913,5.757748 2.6316513,5.748828 2.6232803,5.741992 2.6136463,5.738732 l -0.0025,-8.543e-4 -0.014205,-0.00496 -0.014177,-0.00504 -0.014134,-0.00513 -0.014087,-0.0052 -0.014051,-0.0053 z m 0.313008,0.096051 c -0.037354,-0.00836 -0.065279,0.033055 -0.043331,0.064756 0.00615,0.00848 0.01437,0.014004 0.024575,0.016441 l 0.00876,0.00205 0.01539,0.0035 0.015421,0.00341 0.015457,0.00331 0.015488,0.00322 0.012193,0.00246 c 0.019705,0.00382 0.039102,-0.00662 0.046709,-0.025185 0.00969,-0.024614 -0.00464,-0.051158 -0.030512,-0.056563 l -0.011689,-0.00235 -0.014976,-0.00311 -0.014945,-0.0032 -0.014909,-0.0033 -0.01487,-0.00339 z m 0.323217,0.053342 c -0.040874,-0.00361 -0.061968,0.047264 -0.030413,0.073669 0.0066,0.00539 0.014051,0.00842 0.022516,0.00929 l 0.00472,4.646e-4 0.016059,0.00148 0.016083,0.00138 0.01611,0.00128 0.016142,0.00118 0.015256,0.00102 c 0.016402,9.646e-4 0.0315,-0.00742 0.039343,-0.021842 0.014244,-0.027059 -0.00361,-0.059083 -0.034067,-0.061323 l -0.014736,-9.842e-4 -0.015614,-0.00114 -0.015591,-0.00124 -0.015555,-0.00133 -0.015532,-0.00143 z m 0.327409,0.010106 c -0.041008,0.00181 -0.055142,0.055165 -0.02039,0.077047 0.00731,0.00447 0.01498,0.00648 0.023547,0.00623 l 0.00811,-2.796e-4 0.016283,-6.732e-4 0.01624,-7.717e-4 0.016224,-8.74e-4 0.016197,-9.764e-4 0.011488,-7.637e-4 c 0.014433,-0.00106 0.027362,-0.00938 0.034035,-0.022268 0.015114,-0.028717 -0.00749,-0.063244 -0.039831,-0.060866 l -0.010969,7.322e-4 -0.015669,9.449e-4 -0.015689,8.426e-4 -0.015728,7.48e-4 -0.01574,6.496e-4 z m 0.325909,-0.033012 c -0.015224,0.00273 -0.02737,0.013071 -0.032409,0.027705 -0.00989,0.030169 0.015244,0.059559 0.046543,0.054421 l 0.00706,-0.00119 0.015657,-0.00274 0.015626,-0.00284 0.015591,-0.00294 0.015555,-0.00303 0.013713,-0.00276 c 0.01752,-0.00366 0.030779,-0.017842 0.033004,-0.035642 0.00347,-0.028189 -0.021803,-0.051835 -0.049705,-0.046004 l -0.013209,0.00266 -0.015043,0.00293 -0.015079,0.00284 -0.015106,0.00275 -0.015138,0.00266 z m 0.318402,-0.076091 c -0.038768,0.012524 -0.03852,0.067421 4.055e-4,0.079547 0.00822,0.00243 0.016638,0.00252 0.024839,-1.299e-4 l 0.013894,-0.00437 0.014858,-0.00478 0.014819,-0.00486 0.014776,-0.00495 0.01474,-0.00504 0.00727,-0.00254 c 0.035878,-0.012894 0.037441,-0.062563 0.0021,-0.077795 -0.00961,-0.00391 -0.019988,-0.00427 -0.029791,-8.031e-4 l -0.00678,0.00237 -0.014252,0.00487 -0.014287,0.00479 -0.014331,0.0047 -0.01437,0.00462 z m 0.305654,-0.118205 c -0.015098,0.00706 -0.024547,0.022402 -0.024028,0.039051 9.331e-4,0.029874 0.03224,0.04911 0.059287,0.036461 l 0.00145,-6.732e-4 0.013953,-0.00657 0.013902,-0.00665 0.013866,-0.00673 0.013815,-0.00682 0.013768,-0.0069 0.00554,-0.00282 c 0.031539,-0.016028 0.02965,-0.062272 -0.00316,-0.075618 -0.011299,-0.00468 -0.023953,-0.00408 -0.034835,0.00145 l -0.00509,0.00259 -0.013311,0.00666 -0.013358,0.00659 -0.013402,0.00651 -0.013453,0.00643 -0.013496,0.00635 z m 0.286961,-0.157917 c -0.033835,0.021965 -0.020217,0.074158 0.020272,0.076689 0.00887,4.213e-4 0.017205,-0.00175 0.024705,-0.00653 l 5.354e-4,-3.386e-4 0.012858,-0.0083 0.012807,-0.00837 0.012752,-0.00845 0.012697,-0.00852 0.012642,-0.0086 0.00636,-0.00438 c 0.014189,-0.00988 0.020776,-0.027221 0.016776,-0.044028 -0.00687,-0.028378 -0.040276,-0.041154 -0.064248,-0.024461 l -0.00595,0.0041 -0.012232,0.00831 -0.012279,0.00824 -0.012335,0.00817 -0.012382,0.0081 -0.012441,0.00802 z m 0.263287,-0.194524 c -0.030295,0.026216 -0.010158,0.075728 0.030118,0.073213 0.00909,-7.205e-4 0.017106,-0.00401 0.024071,-0.00991 l 0.00973,-0.00828 0.011551,-0.00994 0.011492,-0.010016 0.011437,-0.010087 0.011362,-0.010146 0.00804,-0.00726 C 5.1272093,5.290205 5.1322423,5.278623 5.1320573,5.266788 5.1314864,5.230859 5.0890253,5.212426 5.0623723,5.236465 l -0.00767,0.00692 -0.011,0.00982 -0.011059,0.00976 -0.011114,0.00968 -0.011181,0.00963 z m 0.235433,-0.22785 c -0.02226,0.024681 -0.00799,0.063839 0.025,0.069075 0.014091,0.00179 0.027413,-0.00277 0.037,-0.013398 l 0.00619,-0.00685 0.01015,-0.01137 0.010083,-0.011429 0.010012,-0.011488 0.00995,-0.011559 0.00931,-0.010945 c 0.02465,-0.029134 1.26e-4,-0.073551 -0.03778,-0.068138 -0.01011,0.00144 -0.019264,0.00654 -0.025858,0.014335 l -0.00899,0.010567 -0.00962,0.011173 -0.00969,0.011118 -0.00975,0.011059 -0.00982,0.011 z m 0.203213,-0.256976 c -0.019429,0.029146 0.00268,0.067846 0.03785,0.065055 0.012787,-0.00122 0.023563,-0.00743 0.030921,-0.017992 l 0.00348,-0.00505 0.0086,-0.012642 0.00853,-0.012705 0.00844,-0.012752 0.00837,-0.012795 0.0083,-0.012858 0.0012,-0.00188 c 0.00909,-0.01465 0.00857,-0.032622 -0.00142,-0.046673 -0.017449,-0.023882 -0.053102,-0.022803 -0.069004,0.00212 l -9.212e-4,0.00145 -0.00803,0.012433 -0.00811,0.012394 -0.00817,0.012335 -0.00824,0.012279 -0.00831,0.012232 z m 0.16728,-0.281622 c -0.016394,0.032256 0.014043,0.069039 0.048803,0.058784 0.011075,-0.00309 0.020409,-0.011039 0.025598,-0.021248 l 0.00209,-0.00412 0.00689,-0.013764 0.00681,-0.013815 0.00673,-0.013862 0.00665,-0.013905 0.00657,-0.013949 0.00135,-0.00291 c 0.00683,-0.015122 0.00435,-0.032433 -0.00659,-0.044945 -0.020216,-0.022567 -0.056303,-0.017272 -0.069134,0.010158 l -0.00113,0.00244 -0.00635,0.013492 -0.00643,0.013457 -0.0065,0.013398 -0.00659,0.013358 -0.00667,0.013315 z m 0.128161,-0.301354 c -0.00891,0.026319 0.00933,0.053504 0.037087,0.055213 0.018831,8.701e-4 0.035394,-0.010232 0.041685,-0.028016 l 0.00201,-0.00576 0.00504,-0.01474 0.00495,-0.014779 0.00486,-0.014815 0.00478,-0.014858 0.00469,-0.014902 2.362e-4,-7.677e-4 c 0.010854,-0.035823 -0.027323,-0.066689 -0.06035,-0.048405 -0.00948,0.00552 -0.016138,0.01363 -0.019374,0.024153 l -8.66e-5,2.716e-4 -0.00453,0.014406 -0.00462,0.01437 -0.0047,0.014327 -0.00479,0.014291 -0.00487,0.014252 z m 0.08663,-0.315717 c -0.00767,0.039504 0.039445,0.065878 0.069153,0.038697 0.0066,-0.00604 0.010768,-0.013764 0.012595,-0.022508 l 0.00244,-0.012146 0.00303,-0.015555 0.00294,-0.015587 0.00284,-0.015626 0.00274,-0.015661 0.00146,-0.00863 C 5.9212433,3.823294 5.9136433,3.806345 5.8990573,3.797589 5.8738963,3.782313 5.8410853,3.7973764 5.8363213,3.826404 l -0.00137,0.00812 -0.00266,0.015142 -0.00275,0.015106 -0.00284,0.015075 -0.00293,0.015051 z m 0.043701,-0.324661 c -9.646e-4,0.016402 0.00742,0.0315 0.021842,0.039343 0.027059,0.014244 0.059083,-0.00361 0.061323,-0.034067 l 6.575e-4,-0.00989 9.764e-4,-0.016197 8.74e-4,-0.016224 7.716e-4,-0.01624 6.733e-4,-0.016284 3.385e-4,-0.00971 c 0.00114,-0.038842 -0.046878,-0.057996 -0.072776,-0.029016 -0.0065,0.00743 -0.010224,0.016476 -0.010516,0.026378 l -3.228e-4,0.00919 -6.496e-4,0.01574 -7.48e-4,0.015728 -8.426e-4,0.015689 -9.448e-4,0.015669 z M 5.865552,3.254613 C 5.866672,3.269889 5.875412,3.282881 5.889225,3.28955 5.918158,3.303019 5.950583,3.28109 5.948709,3.249227 L 5.9486264,3.247877 5.9481027,3.239987 5.9475555,3.232137 5.9469886,3.224277 5.9463902,3.216417 5.945776,3.208587 5.9451342,3.200737 5.9444689,3.192897 5.943776,3.185067 5.9430634,3.177257 5.9423272,3.169437 5.9418705,3.164767 c -0.00407,-0.039496 -0.055626,-0.05161 -0.076878,-0.017858 -0.00481,0.00787 -0.007,0.01685 -0.00605,0.026047 l 4.331e-4,0.00443 7.126e-4,0.00756 6.889e-4,0.00757 6.693e-4,0.00757 6.418e-4,0.00757 6.181e-4,0.00759 5.984e-4,0.0076 5.748e-4,0.0076 5.512e-4,0.0076 5.315e-4,0.00763 5.078e-4,0.0076 z M 5.822887,2.929932 c 0.00377,0.018031 0.018276,0.031193 0.036587,0.033197 0.028169,0.0026 0.05048,-0.021949 0.045091,-0.049724 l -0.00107,-0.00533 -0.00154,-0.00755 -0.00156,-0.00754 -0.00159,-0.00755 -0.00161,-0.00752 -0.00163,-0.00751 -0.00165,-0.00752 -0.00168,-0.0075 -0.00169,-0.00749 -0.00172,-0.00749 -0.00174,-0.00748 -5.433e-4,-0.0023 c -0.00904,-0.037866 -0.060764,-0.043697 -0.077945,-0.00872 -0.00427,0.00869 -0.00538,0.018563 -0.00313,0.027984 l 4.882e-4,0.00206 0.00168,0.00723 0.00166,0.00723 0.00164,0.00725 0.00162,0.00726 0.00159,0.00725 0.00157,0.00729 0.00156,0.00728 0.00153,0.00728 0.00151,0.0073 0.00149,0.0073 z M 5.737226,2.613794 C 5.750545,2.65144 5.803592,2.650971 5.81623,2.6130617 5.81902,2.6041017 5.819,2.5954747 5.815982,2.5865577 l -9.016e-4,-0.00263 -0.00249,-0.00716 -0.0025,-0.00715 -0.00254,-0.00716 -0.00255,-0.00713 -0.00257,-0.00711 -0.00259,-0.00711 -0.00261,-0.00711 -0.00263,-0.00708 -0.00265,-0.00708 -0.00268,-0.00707 -0.00222,-0.00582 c -0.014535,-0.037209 -0.067646,-0.034941 -0.078941,0.00333 -0.00251,0.00901 -0.00217,0.017709 0.00112,0.026484 l 0.00213,0.00559 0.00258,0.00683 0.00256,0.00685 0.00255,0.00687 0.00253,0.00686 0.0025,0.00687 0.00249,0.00689 0.00247,0.0069 0.00244,0.00689 0.00243,0.00692 0.00241,0.00693 z M 5.610002,2.312022 C 5.616872,2.325538 5.630537,2.334424 5.645723,2.3349 5.677396,2.3358882 5.698731,2.30268 5.684404,2.274487 l -0.00132,-0.00263 -0.00339,-0.00668 -0.0034,-0.00668 -0.00343,-0.00667 -0.00344,-0.00664 -0.00346,-0.00663 -0.00348,-0.00664 -0.00351,-0.00663 -0.00351,-0.00659 -0.00354,-0.00659 -0.00355,-0.00658 -0.00328,-0.00604 C 5.636664,2.184164 5.619897,2.175763 5.602594,2.178196 5.573917,2.182226 5.558007,2.214078 5.571944,2.239416 l 0.00316,0.00582 0.00344,0.00637 0.00342,0.00638 0.00341,0.0064 0.00338,0.00639 0.00336,0.00641 0.00335,0.00643 0.00333,0.00644 0.00331,0.00643 0.00329,0.00645 0.00328,0.00647 z M 5.443593,2.029853 C 5.466739,2.063085 5.518365,2.047877 5.51966,2.007081 5.5197978,1.998181 5.51732,1.990215 5.5124,1.982829 l -7.09e-5,-1.063e-4 -0.00422,-0.00615 -0.00422,-0.00612 -0.00425,-0.00611 -0.00426,-0.0061 -0.00427,-0.00608 -0.0043,-0.00608 -0.00432,-0.00607 -0.00433,-0.00604 -0.00434,-0.00604 -0.00437,-0.00602 -0.00438,-0.006 -0.00167,-0.00228 c -0.00944,-0.012665 -0.024665,-0.018913 -0.040279,-0.016433 -0.030819,0.0053 -0.045217,0.040563 -0.026839,0.065835 l 0.00153,0.00208 0.00424,0.00582 0.00422,0.00582 0.00421,0.00584 0.0042,0.00586 0.00417,0.00585 0.00415,0.00587 0.00415,0.0059 0.00413,0.0059 0.00411,0.00592 0.00409,0.00593 0.00407,0.00593 z"
         class="fil0" /></g></g></g><rect
   style="fill:none"
   y="91.466248"
   x="0"
   id="rect30"
   height="6.8270001"
   width="6.8270001"
   class="fil1" />
</svg>
